<?xml version="1.0" standalone="no"?>
<!DOCTYPE svg PUBLIC "-//W3C//DTD SVG 20010904//EN"
 "http://www.w3.org/TR/2001/REC-SVG-20010904/DTD/svg10.dtd">
<svg version="1.0" xmlns="http://www.w3.org/2000/svg"
 width="500.000000pt" height="500.000000pt" viewBox="0 0 500.000000 500.000000"
 preserveAspectRatio="xMidYMid meet">

<g transform="translate(0.000000,500.000000) scale(0.100000,-0.100000)"
fill="#000000" stroke="none">
<path d="M4010 3599 c0 -25 -4 -29 -29 -29 -58 0 -125 -44 -187 -124 l-21 -27
-32 30 c-61 57 -154 63 -237 16 -22 -13 -64 -49 -92 -80 l-52 -56 -37 30 c-72
57 -149 54 -233 -9 l-52 -39 -40 37 c-74 69 -180 90 -280 55 -29 -10 -80 -43
-119 -75 -38 -32 -73 -58 -77 -58 -5 0 -17 10 -28 21 -27 31 -99 59 -148 59
-59 0 -100 -15 -176 -66 l-65 -43 -35 34 c-63 60 -107 79 -185 79 -74 0 -114
-15 -149 -53 -11 -12 -23 -21 -27 -21 -4 0 -32 24 -62 54 -39 39 -65 57 -91
62 -87 16 -170 -16 -216 -83 -22 -32 -45 -43 -52 -25 -5 15 -101 78 -138 92
-19 7 -50 20 -68 28 -56 25 -114 -14 -163 -111 -24 -46 -22 -108 5 -197 10
-30 22 -71 27 -90 6 -19 14 -48 19 -65 8 -27 46 -161 71 -255 6 -19 14 -48 19
-65 4 -16 18 -68 29 -115 23 -92 39 -150 51 -190 4 -14 12 -47 18 -75 14 -63
60 -259 72 -305 15 -60 30 -123 41 -175 5 -27 14 -69 20 -92 5 -24 13 -62 18
-85 6 -24 15 -65 21 -93 6 -27 18 -84 26 -125 8 -41 20 -97 25 -125 25 -120
39 -192 70 -355 6 -30 15 -75 20 -100 14 -72 44 -243 69 -395 22 -136 24 -140
50 -143 26 -2 167 -26 258 -42 28 -6 76 -14 105 -19 28 -6 77 -14 107 -20 30
-6 71 -13 90 -16 19 -3 73 -13 120 -21 47 -8 110 -20 140 -25 30 -5 78 -13
105 -18 28 -6 118 -22 200 -36 83 -15 162 -29 176 -32 19 -4 40 5 78 31 28 20
54 36 57 36 3 0 19 9 34 20 15 11 56 36 89 55 34 19 89 51 124 71 82 48 126
73 222 124 149 80 130 44 144 269 6 108 16 239 21 291 6 52 12 115 14 140 10
120 57 494 85 685 20 138 56 365 70 450 34 190 60 335 71 390 9 46 19 95 49
250 12 61 26 126 31 145 5 19 12 49 15 65 17 83 48 220 71 311 24 97 25 216 1
242 -10 11 -27 22 -38 25 -16 4 -19 0 -19 -24z m-342 -173 c35 -18 53 -39 87
-101 22 -40 26 -57 21 -90 -6 -44 -29 -160 -66 -342 -29 -145 -60 -330 -67
-396 -3 -31 -9 -60 -14 -63 -5 -3 -9 -24 -9 -46 0 -23 -4 -55 -9 -72 -5 -17
-15 -71 -21 -121 -7 -49 -17 -121 -22 -160 -5 -38 -14 -101 -19 -140 -5 -38
-13 -99 -18 -135 -10 -75 -38 -322 -53 -460 -22 -216 -41 -486 -54 -763 l-7
-148 -59 -34 c-32 -19 -61 -35 -64 -35 -2 0 -23 -11 -45 -26 -91 -57 -109 -65
-115 -50 -8 20 2 587 15 886 13 316 40 708 70 1025 5 50 14 142 20 205 6 63
15 151 21 195 5 44 12 98 15 120 9 74 26 200 35 260 5 33 14 101 20 150 10 79
17 98 55 160 57 90 102 139 157 170 49 28 87 31 126 11z m-736 -105 c23 -17
59 -54 81 -82 l38 -51 -5 -82 c-3 -44 -10 -128 -15 -186 -35 -353 -70 -865
-91 -1300 -19 -410 -22 -500 -28 -1005 l-7 -520 -45 1 c-59 2 -193 24 -204 34
-5 5 -8 156 -7 337 1 180 -3 395 -9 477 l-10 149 46 61 c219 294 198 696 -51
970 -19 21 -35 45 -35 53 0 8 -5 67 -10 131 -6 64 -15 196 -21 292 -10 164
-19 279 -35 462 -6 70 -4 80 17 110 61 87 153 164 213 179 60 15 133 3 178
-30z m-1750 -22 c57 -40 139 -122 152 -154 8 -16 21 -66 31 -110 10 -44 21
-90 26 -103 5 -13 9 -36 9 -52 0 -16 4 -31 9 -34 5 -3 11 -23 14 -43 3 -21 11
-60 17 -88 6 -27 18 -84 26 -125 9 -41 19 -94 25 -117 20 -95 28 -132 42 -215
9 -48 18 -92 21 -97 3 -5 -17 -36 -44 -68 -60 -69 -133 -209 -151 -287 -7 -31
-16 -56 -20 -56 -5 0 -11 17 -14 38 -7 37 -47 215 -65 282 -5 19 -16 67 -25
105 -9 39 -21 87 -26 108 -20 80 -29 118 -39 155 -5 20 -19 73 -31 117 -11 44
-24 94 -29 110 -5 17 -16 57 -24 90 -9 33 -28 103 -42 155 -14 52 -30 104 -34
115 -4 11 -16 47 -25 80 -9 33 -21 73 -26 88 -11 37 9 86 47 116 25 20 37 22
86 18 37 -3 69 -13 90 -28z m776 -18 c47 -24 116 -94 138 -139 17 -35 22 -68
44 -272 6 -58 15 -124 20 -148 6 -23 10 -66 10 -96 0 -29 4 -66 9 -82 6 -16
11 -65 13 -109 l3 -81 -115 0 c-79 0 -134 -6 -175 -18 -33 -9 -67 -19 -76 -22
-14 -4 -18 10 -28 78 -6 46 -16 106 -21 133 -5 28 -12 68 -15 90 -3 22 -9 63
-14 90 -5 28 -16 95 -25 150 -9 55 -21 127 -27 160 -25 149 -28 135 56 218 69
67 135 83 203 48z m302 -1061 c149 -50 245 -118 334 -236 155 -208 166 -496
26 -719 -83 -130 -237 -240 -395 -280 -83 -21 -206 -19 -299 5 -281 71 -485
329 -486 612 0 188 89 380 232 497 66 55 193 117 278 136 87 20 225 13 310
-15z m-587 -1239 c72 -46 69 -41 87 -191 38 -328 55 -499 48 -505 -6 -7 -144
13 -174 25 -21 8 -22 12 -44 145 -13 81 -40 236 -50 290 -6 28 -14 75 -20 105
-5 30 -14 78 -20 105 -5 28 -16 84 -24 125 -7 41 -17 84 -21 95 -5 11 28 -19
73 -66 44 -47 110 -105 145 -128z m627 -443 l0 -341 -76 7 c-41 4 -86 11 -100
16 -14 6 -40 10 -57 10 -60 0 -61 3 -68 192 -4 95 -10 233 -14 306 l-8 132 89
1 c49 1 118 6 154 13 36 7 68 10 73 8 4 -2 7 -157 7 -344z"/>
<path d="M1727 2053 c-3 -10 -8 -63 -12 -118 -3 -55 -8 -112 -11 -126 -5 -26
-3 -27 45 -30 l51 -4 0 42 0 41 58 -1 c92 -2 142 44 127 120 -11 58 -43 73
-192 88 -54 6 -62 5 -66 -12z m161 -135 c3 -15 -4 -18 -37 -18 -40 0 -58 11
-46 31 11 17 79 7 83 -13z"/>
<path d="M2055 1946 c-58 -25 -74 -112 -30 -165 46 -53 152 -52 190 3 18 24
20 99 4 128 -22 42 -106 59 -164 34z m94 -85 c20 -13 4 -31 -28 -31 -29 0 -57
21 -44 33 9 10 56 8 72 -2z"/>
<path d="M2256 1873 c-3 -37 -9 -103 -12 -145 l-7 -78 47 0 46 0 1 83 c0 70 2
78 11 52 17 -49 38 -66 76 -63 49 4 76 43 76 107 0 66 -24 101 -67 101 -36 0
-58 -13 -76 -45 -10 -18 -11 -16 -9 15 3 34 2 35 -38 38 l-41 3 -7 -68z m154
-33 c13 -9 13 -11 0 -20 -27 -18 -70 -8 -70 16 0 16 47 19 70 4z"/>
<path d="M1630 1472 c0 -6 -5 -68 -11 -138 -12 -142 -11 -144 54 -144 l37 0 0
55 0 55 55 -6 c54 -7 55 -6 55 20 0 25 -2 26 -55 26 -43 0 -55 3 -55 16 0 10
6 14 18 10 9 -3 42 -8 74 -11 l56 -7 4 58 c2 33 4 60 3 60 0 1 -53 5 -117 9
-82 5 -118 4 -118 -3z"/>
<path d="M1916 1457 c-25 -18 -16 -50 17 -61 32 -12 60 1 66 29 4 20 -23 45
-49 45 -9 0 -24 -6 -34 -13z"/>
<path d="M2027 1443 c-3 -5 -8 -57 -11 -118 -4 -60 -9 -123 -12 -138 l-6 -28
64 3 63 3 3 43 c3 37 1 42 -17 42 -17 0 -20 5 -16 28 8 44 25 156 25 165 0 4
-20 7 -44 7 -25 0 -47 -3 -49 -7z"/>
<path d="M1877 1359 c-12 -42 -8 -66 11 -71 16 -5 18 -13 14 -62 l-4 -56 41 0
c36 0 41 3 42 23 0 12 4 57 7 100 7 73 6 77 -13 77 -11 0 -36 3 -56 6 -32 5
-37 3 -42 -17z"/>
<path d="M2156 1338 c-3 -13 -7 -60 -11 -105 l-5 -83 43 0 44 0 -1 44 c-1 49
13 72 39 62 14 -5 15 -15 10 -61 l-7 -55 40 0 c44 0 43 -1 55 90 1 8 11 15 22
15 18 0 20 -6 17 -57 l-2 -58 44 0 43 0 6 78 c6 99 -5 127 -53 127 -30 0 -37
-5 -57 -40 -22 -39 -23 -39 -23 -12 0 44 -17 67 -49 67 -30 0 -48 -15 -68 -59
-12 -24 -12 -23 -7 15 5 40 4 41 -27 48 -46 9 -48 8 -53 -16z"/>
</g>
</svg>
